<svg width="242" height="56" viewBox="0 0 242 56" fill="none" xmlns="http://www.w3.org/2000/svg">
<path d="M75.316 35.654C75.316 35.722 75.384 35.7787 75.52 35.824C75.656 35.8693 75.826 35.9147 76.03 35.96C76.234 35.9827 76.4607 36.0053 76.71 36.028C76.9593 36.028 77.2087 36.028 77.458 36.028H78.308V38H67.258V36.028H67.598C68.2553 36.028 68.7993 35.9487 69.23 35.79C69.6833 35.6313 69.91 35.3027 69.91 34.804V17.056C69.91 16.5573 69.6833 16.2287 69.23 16.07C68.7993 15.9113 68.2553 15.832 67.598 15.832H67.258V13.86H78.852C81.7533 13.86 84.0087 14.4947 85.618 15.764C87.25 17.0333 88.066 18.7787 88.066 21C88.066 22.5187 87.6807 23.8447 86.91 24.978C86.162 26.1113 85.0853 26.9953 83.68 27.63C82.2747 28.242 80.6087 28.548 78.682 28.548H74.296V26.236H77.764C78.8067 26.236 79.6793 26.032 80.382 25.624C81.1073 25.216 81.6513 24.638 82.014 23.89C82.3993 23.1193 82.592 22.19 82.592 21.102C82.592 20.014 82.4107 19.1073 82.048 18.382C81.6853 17.6567 81.1527 17.1127 80.45 16.75C79.77 16.3873 78.92 16.206 77.9 16.206H75.316V35.654ZM103.42 20.49V25.012C103.239 24.944 103.035 24.8987 102.808 24.876C102.604 24.8307 102.378 24.7967 102.128 24.774C101.902 24.7513 101.675 24.74 101.448 24.74C100.882 24.74 100.372 24.808 99.9182 24.944C99.4875 25.0573 99.0909 25.2387 98.7282 25.488C98.3655 25.7373 98.0369 26.066 97.7422 26.474C97.4475 26.882 97.1642 27.3807 96.8922 27.97L96.8582 25.998C97.1755 24.8873 97.5609 23.9127 98.0142 23.074C98.4902 22.2127 99.0569 21.544 99.7142 21.068C100.394 20.592 101.222 20.354 102.196 20.354C102.446 20.354 102.684 20.3653 102.91 20.388C103.137 20.4107 103.307 20.4447 103.42 20.49ZM90.2282 38V36.13H90.2622C90.8742 36.13 91.3842 36.062 91.7922 35.926C92.2002 35.79 92.4042 35.4953 92.4042 35.042V23.856C92.4042 23.584 92.3362 23.38 92.2002 23.244C92.0642 23.108 91.8602 22.9947 91.5882 22.904C91.3162 22.7907 90.9649 22.6887 90.5342 22.598L90.2282 22.53V20.592H97.1642V25.93L97.5382 25.59V35.382C97.5382 35.6087 97.6742 35.7787 97.9462 35.892C98.2182 36.0053 98.5355 36.0733 98.8982 36.096C99.2835 36.1187 99.6235 36.13 99.9182 36.13H100.326V38H90.2282ZM124.283 29.296C124.283 31.064 123.887 32.6393 123.093 34.022C122.323 35.382 121.212 36.4473 119.761 37.218C118.333 37.966 116.656 38.34 114.729 38.34C112.825 38.34 111.148 37.966 109.697 37.218C108.269 36.4473 107.159 35.382 106.365 34.022C105.572 32.6393 105.175 31.064 105.175 29.296C105.175 27.9587 105.402 26.746 105.855 25.658C106.309 24.5473 106.955 23.5953 107.793 22.802C108.655 21.986 109.663 21.3627 110.819 20.932C111.998 20.4787 113.301 20.252 114.729 20.252C116.18 20.252 117.483 20.4787 118.639 20.932C119.818 21.3627 120.827 21.986 121.665 22.802C122.527 23.5953 123.173 24.5473 123.603 25.658C124.057 26.746 124.283 27.9587 124.283 29.296ZM110.513 29.296C110.513 30.724 110.672 31.948 110.989 32.968C111.329 33.988 111.817 34.7587 112.451 35.28C113.086 35.8013 113.845 36.062 114.729 36.062C115.636 36.062 116.395 35.8013 117.007 35.28C117.642 34.7587 118.129 33.988 118.469 32.968C118.809 31.948 118.979 30.724 118.979 29.296C118.979 27.8453 118.809 26.6327 118.469 25.658C118.129 24.6607 117.642 23.9013 117.007 23.38C116.395 22.8587 115.636 22.598 114.729 22.598C113.845 22.598 113.086 22.8587 112.451 23.38C111.817 23.9013 111.329 24.6607 110.989 25.658C110.672 26.6327 110.513 27.8453 110.513 29.296ZM128.491 39.394V23.856C128.491 23.584 128.412 23.38 128.253 23.244C128.095 23.0853 127.857 22.9607 127.539 22.87C127.222 22.7567 126.837 22.666 126.383 22.598L125.941 22.53V20.592H133.625V38.816C133.625 40.176 133.444 41.3207 133.081 42.25C132.741 43.1793 132.243 43.916 131.585 44.46C130.951 45.0267 130.18 45.4233 129.273 45.65C128.389 45.8993 127.403 46.024 126.315 46.024C125.635 46.024 125.012 45.9787 124.445 45.888C123.856 45.82 123.414 45.718 123.119 45.582V43.1C123.482 43.236 123.867 43.3493 124.275 43.44C124.683 43.5533 125.125 43.61 125.601 43.61C126.213 43.61 126.735 43.474 127.165 43.202C127.596 42.9527 127.925 42.5107 128.151 41.876C128.378 41.264 128.491 40.4367 128.491 39.394ZM130.973 17.736C130.067 17.736 129.341 17.5093 128.797 17.056C128.276 16.6027 128.015 15.9793 128.015 15.186C128.015 14.3927 128.276 13.7693 128.797 13.316C129.341 12.8627 130.067 12.636 130.973 12.636C131.857 12.636 132.56 12.8627 133.081 13.316C133.625 13.7693 133.897 14.3927 133.897 15.186C133.897 15.9793 133.625 16.6027 133.081 17.056C132.56 17.5093 131.857 17.736 130.973 17.736ZM142.451 29.398C142.451 30.4407 142.553 31.37 142.757 32.186C142.984 33.002 143.313 33.6933 143.743 34.26C144.174 34.804 144.695 35.2233 145.307 35.518C145.942 35.79 146.656 35.926 147.449 35.926C148.288 35.926 149.013 35.7673 149.625 35.45C150.26 35.11 150.793 34.6907 151.223 34.192C151.677 33.6933 152.051 33.1833 152.345 32.662L154.249 34.09C153.819 34.906 153.263 35.6427 152.583 36.3C151.903 36.9347 151.087 37.4333 150.135 37.796C149.183 38.1587 148.061 38.34 146.769 38.34C144.888 38.34 143.233 37.9773 141.805 37.252C140.377 36.5267 139.255 35.4953 138.439 34.158C137.646 32.798 137.249 31.2 137.249 29.364C137.249 27.5507 137.635 25.964 138.405 24.604C139.199 23.244 140.264 22.1787 141.601 21.408C142.961 20.6373 144.48 20.252 146.157 20.252C147.517 20.252 148.707 20.4673 149.727 20.898C150.77 21.306 151.643 21.918 152.345 22.734C153.048 23.55 153.581 24.5813 153.943 25.828C154.306 27.052 154.487 28.4913 154.487 30.146H141.635V27.97H150.407L149.557 28.82C149.557 27.6867 149.489 26.7233 149.353 25.93C149.217 25.1367 149.013 24.502 148.741 24.026C148.469 23.5273 148.118 23.1647 147.687 22.938C147.279 22.7113 146.792 22.598 146.225 22.598C145.681 22.598 145.183 22.734 144.729 23.006C144.276 23.278 143.868 23.6973 143.505 24.264C143.165 24.8307 142.905 25.5447 142.723 26.406C142.542 27.2447 142.451 28.242 142.451 29.398ZM167.14 35.96C168.024 35.96 168.783 35.7787 169.418 35.416C170.052 35.0307 170.596 34.566 171.05 34.022C171.526 33.4553 171.922 32.9 172.24 32.356L174.076 33.784C173.577 34.6453 172.988 35.4273 172.308 36.13C171.628 36.81 170.8 37.354 169.826 37.762C168.874 38.1473 167.74 38.34 166.426 38.34C164.567 38.34 162.924 37.966 161.496 37.218C160.068 36.47 158.946 35.4273 158.13 34.09C157.314 32.73 156.906 31.132 156.906 29.296C156.906 27.46 157.314 25.8733 158.13 24.536C158.946 23.176 160.09 22.122 161.564 21.374C163.037 20.626 164.76 20.252 166.732 20.252C167.978 20.252 169.066 20.3767 169.996 20.626C170.925 20.8753 171.696 21.1587 172.308 21.476C172.942 21.7933 173.407 22.088 173.702 22.36V26.746H169.554V22.564C169.826 22.6093 170.052 22.7 170.234 22.836C170.438 22.9493 170.585 23.108 170.676 23.312C170.789 23.4933 170.834 23.6973 170.812 23.924C170.812 24.128 170.755 24.3207 170.642 24.502C170.324 23.958 169.837 23.5047 169.18 23.142C168.522 22.7793 167.774 22.598 166.936 22.598C165.916 22.598 165.054 22.87 164.352 23.414C163.649 23.958 163.116 24.74 162.754 25.76C162.414 26.7573 162.244 27.936 162.244 29.296C162.244 30.3387 162.346 31.268 162.55 32.084C162.776 32.9 163.094 33.6027 163.502 34.192C163.932 34.7587 164.454 35.2007 165.066 35.518C165.678 35.8127 166.369 35.96 167.14 35.96ZM175.309 22.802V20.762H175.445C176.011 20.762 176.499 20.728 176.907 20.66C177.315 20.5693 177.621 20.4107 177.825 20.184C178.051 19.9347 178.165 19.606 178.165 19.198L181.123 20.592H187.651V22.802H175.309ZM183.061 32.118C183.061 33.0473 183.163 33.784 183.367 34.328C183.571 34.872 183.877 35.2573 184.285 35.484C184.693 35.7107 185.169 35.824 185.713 35.824C186.166 35.824 186.585 35.7787 186.971 35.688C187.379 35.5973 187.685 35.518 187.889 35.45V37.762C187.707 37.8527 187.447 37.9433 187.107 38.034C186.789 38.1247 186.415 38.1927 185.985 38.238C185.554 38.306 185.078 38.34 184.557 38.34C183.333 38.34 182.211 38.1587 181.191 37.796C180.193 37.4107 179.389 36.7647 178.777 35.858C178.187 34.9513 177.893 33.716 177.893 32.152V21.204L178.165 20.932L178.199 15.9H183.061V32.118ZM196.748 12.942V35.042C196.748 35.4953 196.94 35.79 197.326 35.926C197.734 36.062 198.244 36.13 198.856 36.13H198.89V38H189.438V36.13H189.472C190.084 36.13 190.582 36.062 190.968 35.926C191.376 35.79 191.58 35.4953 191.58 35.042V16.206C191.58 15.934 191.512 15.73 191.376 15.594C191.262 15.4353 191.07 15.3107 190.798 15.22C190.526 15.1067 190.174 15.016 189.744 14.948L189.404 14.88V12.942H196.748ZM205.087 17.736C204.203 17.736 203.489 17.5093 202.945 17.056C202.401 16.6027 202.129 15.9793 202.129 15.186C202.129 14.3927 202.401 13.7693 202.945 13.316C203.489 12.8627 204.203 12.636 205.087 12.636C205.971 12.636 206.674 12.8627 207.195 13.316C207.739 13.7693 208.011 14.3927 208.011 15.186C208.011 15.9793 207.739 16.6027 207.195 17.056C206.674 17.5093 205.971 17.736 205.087 17.736ZM207.739 20.592V35.042C207.739 35.4953 207.943 35.79 208.351 35.926C208.759 36.062 209.269 36.13 209.881 36.13H209.915V38H200.429V36.13H200.463C201.075 36.13 201.585 36.062 201.993 35.926C202.401 35.79 202.605 35.4953 202.605 35.042V23.856C202.605 23.448 202.458 23.176 202.163 23.04C201.869 22.8813 201.393 22.734 200.735 22.598L200.429 22.53V20.592H207.739ZM222.226 33.716C222.226 33.308 222.113 32.968 221.886 32.696C221.659 32.424 221.353 32.1973 220.968 32.016C220.583 31.812 220.141 31.642 219.642 31.506C219.143 31.37 218.611 31.234 218.044 31.098C217.341 30.9167 216.639 30.7127 215.936 30.486C215.256 30.2367 214.621 29.9193 214.032 29.534C213.465 29.126 213.001 28.616 212.638 28.004C212.298 27.3693 212.128 26.576 212.128 25.624C212.128 24.4907 212.423 23.516 213.012 22.7C213.601 21.884 214.44 21.272 215.528 20.864C216.616 20.4333 217.885 20.218 219.336 20.218C220.515 20.218 221.535 20.3087 222.396 20.49C223.28 20.6713 223.994 20.8867 224.538 21.136C225.082 21.3853 225.479 21.6007 225.728 21.782V25.352H221.92V22.258C222.237 22.258 222.475 22.3033 222.634 22.394C222.815 22.4847 222.929 22.6093 222.974 22.768C223.042 22.9267 223.065 23.108 223.042 23.312C223.019 23.4933 222.974 23.6747 222.906 23.856C222.657 23.5387 222.351 23.278 221.988 23.074C221.648 22.87 221.263 22.7227 220.832 22.632C220.401 22.5187 219.914 22.462 219.37 22.462C218.395 22.462 217.659 22.6547 217.16 23.04C216.684 23.4253 216.446 23.9467 216.446 24.604C216.446 25.0347 216.559 25.3973 216.786 25.692C217.035 25.964 217.364 26.202 217.772 26.406C218.203 26.5873 218.679 26.7573 219.2 26.916C219.721 27.052 220.277 27.1993 220.866 27.358C221.569 27.5393 222.271 27.7547 222.974 28.004C223.677 28.2307 224.323 28.5367 224.912 28.922C225.501 29.3073 225.966 29.806 226.306 30.418C226.669 31.03 226.85 31.778 226.85 32.662C226.85 33.8407 226.544 34.8493 225.932 35.688C225.32 36.5267 224.425 37.184 223.246 37.66C222.067 38.1133 220.628 38.34 218.928 38.34C217.749 38.34 216.684 38.2493 215.732 38.068C214.78 37.8867 213.953 37.6487 213.25 37.354C212.57 37.0593 212.003 36.776 211.55 36.504V32.662H215.426V36.708C215.063 36.5267 214.78 36.334 214.576 36.13C214.372 35.9033 214.236 35.688 214.168 35.484C214.123 35.2573 214.123 35.0533 214.168 34.872C214.213 34.6907 214.315 34.5433 214.474 34.43C214.814 34.838 215.199 35.1667 215.63 35.416C216.083 35.6427 216.582 35.8127 217.126 35.926C217.693 36.0393 218.293 36.096 218.928 36.096C219.631 36.096 220.22 36.0053 220.696 35.824C221.172 35.6427 221.546 35.382 221.818 35.042C222.09 34.6793 222.226 34.2373 222.226 33.716ZM227.836 22.802V20.762H227.972C228.539 20.762 229.026 20.728 229.434 20.66C229.842 20.5693 230.148 20.4107 230.352 20.184C230.579 19.9347 230.692 19.606 230.692 19.198L233.65 20.592H240.178V22.802H227.836ZM235.588 32.118C235.588 33.0473 235.69 33.784 235.894 34.328C236.098 34.872 236.404 35.2573 236.812 35.484C237.22 35.7107 237.696 35.824 238.24 35.824C238.693 35.824 239.113 35.7787 239.498 35.688C239.906 35.5973 240.212 35.518 240.416 35.45V37.762C240.235 37.8527 239.974 37.9433 239.634 38.034C239.317 38.1247 238.943 38.1927 238.512 38.238C238.081 38.306 237.605 38.34 237.084 38.34C235.86 38.34 234.738 38.1587 233.718 37.796C232.721 37.4107 231.916 36.7647 231.304 35.858C230.715 34.9513 230.42 33.716 230.42 32.152V21.204L230.692 20.932L230.726 15.9H235.588V32.118Z" fill="black"/>
<rect x="1" y="1" width="54" height="54" rx="18" fill="#A66730" stroke="#955E2D" stroke-width="2"/>
<mask id="path-3-outside-1_1_11" maskUnits="userSpaceOnUse" x="15" y="14" width="27" height="33" fill="black">
<rect fill="white" x="15" y="14" width="27" height="33"/>
<path d="M28.6914 34.3945H21.2891V30.5078H28.6914C29.9805 30.5078 31.0221 30.2995 31.8164 29.8828C32.6107 29.4661 33.1901 28.8932 33.5547 28.1641C33.9323 27.4219 34.1211 26.5755 34.1211 25.625C34.1211 24.7266 33.9323 23.8867 33.5547 23.1055C33.1901 22.3112 32.6107 21.6732 31.8164 21.1914C31.0221 20.7096 29.9805 20.4688 28.6914 20.4688H22.793V45H17.8906V16.5625H28.6914C30.8919 16.5625 32.7604 16.9531 34.2969 17.7344C35.8464 18.5026 37.0247 19.5703 37.832 20.9375C38.6393 22.2917 39.043 23.8411 39.043 25.5859C39.043 27.4219 38.6393 28.9974 37.832 30.3125C37.0247 31.6276 35.8464 32.6367 34.2969 33.3398C32.7604 34.043 30.8919 34.3945 28.6914 34.3945Z"/>
</mask>
<path d="M28.6914 34.3945H21.2891V30.5078H28.6914C29.9805 30.5078 31.0221 30.2995 31.8164 29.8828C32.6107 29.4661 33.1901 28.8932 33.5547 28.1641C33.9323 27.4219 34.1211 26.5755 34.1211 25.625C34.1211 24.7266 33.9323 23.8867 33.5547 23.1055C33.1901 22.3112 32.6107 21.6732 31.8164 21.1914C31.0221 20.7096 29.9805 20.4688 28.6914 20.4688H22.793V45H17.8906V16.5625H28.6914C30.8919 16.5625 32.7604 16.9531 34.2969 17.7344C35.8464 18.5026 37.0247 19.5703 37.832 20.9375C38.6393 22.2917 39.043 23.8411 39.043 25.5859C39.043 27.4219 38.6393 28.9974 37.832 30.3125C37.0247 31.6276 35.8464 32.6367 34.2969 33.3398C32.7604 34.043 30.8919 34.3945 28.6914 34.3945Z" fill="#24292E"/>
<path d="M21.2891 34.3945H19.2891V36.3945H21.2891V34.3945ZM21.2891 30.5078V28.5078H19.2891V30.5078H21.2891ZM33.5547 28.1641L31.7721 27.2571L31.7658 27.2696L33.5547 28.1641ZM33.5547 23.1055L31.737 23.9398L31.7453 23.9579L31.754 23.9758L33.5547 23.1055ZM22.793 20.4688V18.4688H20.793V20.4688H22.793ZM22.793 45V47H24.793V45H22.793ZM17.8906 45H15.8906V47H17.8906V45ZM17.8906 16.5625V14.5625H15.8906V16.5625H17.8906ZM34.2969 17.7344L33.3904 19.5171L33.3994 19.5217L33.4085 19.5262L34.2969 17.7344ZM37.832 20.9375L36.1098 21.9544L36.1141 21.9616L37.832 20.9375ZM34.2969 33.3398L33.4704 31.5186L33.4646 31.5212L34.2969 33.3398ZM28.6914 32.3945H21.2891V36.3945H28.6914V32.3945ZM23.2891 34.3945V30.5078H19.2891V34.3945H23.2891ZM21.2891 32.5078H28.6914V28.5078H21.2891V32.5078ZM28.6914 32.5078C30.172 32.5078 31.5669 32.2722 32.7455 31.6539L30.8873 28.1117C30.4774 28.3267 29.7889 28.5078 28.6914 28.5078V32.5078ZM32.7455 31.6539C33.8721 31.0629 34.7726 30.2004 35.3435 29.0585L31.7658 27.2696C31.6076 27.586 31.3493 27.8694 30.8873 28.1117L32.7455 31.6539ZM35.3372 29.071C35.8768 28.0104 36.1211 26.8459 36.1211 25.625H32.1211C32.1211 26.3052 31.9878 26.8333 31.7721 27.2571L35.3372 29.071ZM36.1211 25.625C36.1211 24.4361 35.8689 23.2975 35.3554 22.2351L31.754 23.9758C31.9957 24.4759 32.1211 25.017 32.1211 25.625H36.1211ZM35.3723 22.2711C34.8303 21.0902 33.9671 20.1567 32.8536 19.4814L30.7792 22.9014C31.2543 23.1896 31.5499 23.5322 31.737 23.9398L35.3723 22.2711ZM32.8536 19.4814C31.648 18.7501 30.2105 18.4688 28.6914 18.4688V22.4688C29.7505 22.4688 30.3963 22.6692 30.7792 22.9014L32.8536 19.4814ZM28.6914 18.4688H22.793V22.4688H28.6914V18.4688ZM20.793 20.4688V45H24.793V20.4688H20.793ZM22.793 43H17.8906V47H22.793V43ZM19.8906 45V16.5625H15.8906V45H19.8906ZM17.8906 18.5625H28.6914V14.5625H17.8906V18.5625ZM28.6914 18.5625C30.6615 18.5625 32.2016 18.9127 33.3904 19.5171L35.2034 15.9516C33.3192 14.9936 31.1223 14.5625 28.6914 14.5625V18.5625ZM33.4085 19.5262C34.6431 20.1384 35.5171 20.9506 36.1099 21.9544L39.5542 19.9206C38.5324 18.1901 37.0496 16.8668 35.1853 15.9425L33.4085 19.5262ZM36.1141 21.9616C36.7175 22.9738 37.043 24.1621 37.043 25.5859H41.043C41.043 23.5202 40.5611 21.6096 39.5499 19.9134L36.1141 21.9616ZM37.043 25.5859C37.043 27.1232 36.7077 28.3212 36.1276 29.2662L39.5365 31.3588C40.571 29.6736 41.043 27.7205 41.043 25.5859H37.043ZM36.1276 29.2662C35.5503 30.2065 34.6954 30.9627 33.4704 31.5186L35.1233 35.1611C36.9974 34.3107 38.4991 33.0487 39.5365 31.3588L36.1276 29.2662ZM33.4646 31.5212C32.2557 32.0745 30.6879 32.3945 28.6914 32.3945V36.3945C31.0959 36.3945 33.2652 36.0115 35.1291 35.1585L33.4646 31.5212Z" fill="#24292E" mask="url(#path-3-outside-1_1_11)"/>
<mask id="path-5-outside-2_1_11" maskUnits="userSpaceOnUse" x="17" y="12" width="27" height="33" fill="black">
<rect fill="white" x="17" y="12" width="27" height="33"/>
<path d="M30.6914 32.3945H23.2891V28.5078H30.6914C31.9805 28.5078 33.0221 28.2995 33.8164 27.8828C34.6107 27.4661 35.1901 26.8932 35.5547 26.1641C35.9323 25.4219 36.1211 24.5755 36.1211 23.625C36.1211 22.7266 35.9323 21.8867 35.5547 21.1055C35.1901 20.3112 34.6107 19.6732 33.8164 19.1914C33.0221 18.7096 31.9805 18.4688 30.6914 18.4688H24.793V43H19.8906V14.5625H30.6914C32.8919 14.5625 34.7604 14.9531 36.2969 15.7344C37.8464 16.5026 39.0247 17.5703 39.832 18.9375C40.6393 20.2917 41.043 21.8411 41.043 23.5859C41.043 25.4219 40.6393 26.9974 39.832 28.3125C39.0247 29.6276 37.8464 30.6367 36.2969 31.3398C34.7604 32.043 32.8919 32.3945 30.6914 32.3945Z"/>
</mask>
<path d="M30.6914 32.3945H23.2891V28.5078H30.6914C31.9805 28.5078 33.0221 28.2995 33.8164 27.8828C34.6107 27.4661 35.1901 26.8932 35.5547 26.1641C35.9323 25.4219 36.1211 24.5755 36.1211 23.625C36.1211 22.7266 35.9323 21.8867 35.5547 21.1055C35.1901 20.3112 34.6107 19.6732 33.8164 19.1914C33.0221 18.7096 31.9805 18.4688 30.6914 18.4688H24.793V43H19.8906V14.5625H30.6914C32.8919 14.5625 34.7604 14.9531 36.2969 15.7344C37.8464 16.5026 39.0247 17.5703 39.832 18.9375C40.6393 20.2917 41.043 21.8411 41.043 23.5859C41.043 25.4219 40.6393 26.9974 39.832 28.3125C39.0247 29.6276 37.8464 30.6367 36.2969 31.3398C34.7604 32.043 32.8919 32.3945 30.6914 32.3945Z" fill="white"/>
<path d="M23.2891 32.3945H21.2891V34.3945H23.2891V32.3945ZM23.2891 28.5078V26.5078H21.2891V28.5078H23.2891ZM35.5547 26.1641L33.7721 25.2571L33.7658 25.2696L35.5547 26.1641ZM35.5547 21.1055L33.737 21.9398L33.7453 21.9579L33.754 21.9758L35.5547 21.1055ZM24.793 18.4688V16.4688H22.793V18.4688H24.793ZM24.793 43V45H26.793V43H24.793ZM19.8906 43H17.8906V45H19.8906V43ZM19.8906 14.5625V12.5625H17.8906V14.5625H19.8906ZM36.2969 15.7344L35.3904 17.5171L35.3994 17.5217L35.4085 17.5262L36.2969 15.7344ZM39.832 18.9375L38.1098 19.9544L38.1141 19.9616L39.832 18.9375ZM36.2969 31.3398L35.4704 29.5186L35.4646 29.5212L36.2969 31.3398ZM30.6914 30.3945H23.2891V34.3945H30.6914V30.3945ZM25.2891 32.3945V28.5078H21.2891V32.3945H25.2891ZM23.2891 30.5078H30.6914V26.5078H23.2891V30.5078ZM30.6914 30.5078C32.172 30.5078 33.5669 30.2722 34.7455 29.6539L32.8873 26.1117C32.4774 26.3267 31.7889 26.5078 30.6914 26.5078V30.5078ZM34.7455 29.6539C35.8721 29.0629 36.7726 28.2004 37.3435 27.0585L33.7658 25.2696C33.6076 25.586 33.3493 25.8694 32.8873 26.1117L34.7455 29.6539ZM37.3372 27.071C37.8768 26.0104 38.1211 24.8459 38.1211 23.625H34.1211C34.1211 24.3052 33.9878 24.8333 33.7721 25.2571L37.3372 27.071ZM38.1211 23.625C38.1211 22.4361 37.8689 21.2975 37.3554 20.2351L33.754 21.9758C33.9957 22.4759 34.1211 23.017 34.1211 23.625H38.1211ZM37.3723 20.2711C36.8303 19.0902 35.9671 18.1567 34.8536 17.4814L32.7792 20.9014C33.2543 21.1896 33.5499 21.5322 33.737 21.9398L37.3723 20.2711ZM34.8536 17.4814C33.648 16.7501 32.2105 16.4688 30.6914 16.4688V20.4688C31.7505 20.4688 32.3963 20.6692 32.7792 20.9014L34.8536 17.4814ZM30.6914 16.4688H24.793V20.4688H30.6914V16.4688ZM22.793 18.4688V43H26.793V18.4688H22.793ZM24.793 41H19.8906V45H24.793V41ZM21.8906 43V14.5625H17.8906V43H21.8906ZM19.8906 16.5625H30.6914V12.5625H19.8906V16.5625ZM30.6914 16.5625C32.6615 16.5625 34.2016 16.9127 35.3904 17.5171L37.2034 13.9516C35.3192 12.9936 33.1223 12.5625 30.6914 12.5625V16.5625ZM35.4085 17.5262C36.6431 18.1384 37.5171 18.9506 38.1099 19.9544L41.5542 17.9206C40.5324 16.1901 39.0496 14.8668 37.1853 13.9425L35.4085 17.5262ZM38.1141 19.9616C38.7175 20.9738 39.043 22.1621 39.043 23.5859H43.043C43.043 21.5202 42.5611 19.6096 41.5499 17.9134L38.1141 19.9616ZM39.043 23.5859C39.043 25.1232 38.7077 26.3212 38.1276 27.2662L41.5365 29.3588C42.571 27.6736 43.043 25.7205 43.043 23.5859H39.043ZM38.1276 27.2662C37.5503 28.2065 36.6954 28.9627 35.4704 29.5186L37.1233 33.1611C38.9974 32.3107 40.4991 31.0487 41.5365 29.3588L38.1276 27.2662ZM35.4646 29.5212C34.2557 30.0745 32.6879 30.3945 30.6914 30.3945V34.3945C33.0959 34.3945 35.2652 34.0115 37.1291 33.1585L35.4646 29.5212Z" fill="#24292E" mask="url(#path-5-outside-2_1_11)"/>
</svg>
